<mxfile host="app.diagrams.net" agent="Mozilla/5.0 (X11; Linux x86_64; rv:132.0) Gecko/20100101 Firefox/132.0" version="24.8.6">
  <diagram name="Page-1" id="cHp_luuboQ7n58EBtZow">
    <mxGraphModel dx="3187" dy="1729" grid="1" gridSize="10" guides="1" tooltips="1" connect="1" arrows="1" fold="1" page="1" pageScale="1" pageWidth="2000" pageHeight="1200" math="0" shadow="0">
      <root>
        <mxCell id="0" />
        <mxCell id="1" parent="0" />
        <mxCell id="DpnooXdDaTHGX6aRq5rG-41" style="edgeStyle=orthogonalEdgeStyle;rounded=0;orthogonalLoop=1;jettySize=auto;html=1;exitX=0.5;exitY=1;exitDx=0;exitDy=0;" edge="1" parent="1" source="DpnooXdDaTHGX6aRq5rG-1" target="DpnooXdDaTHGX6aRq5rG-4">
          <mxGeometry relative="1" as="geometry" />
        </mxCell>
        <mxCell id="DpnooXdDaTHGX6aRq5rG-1" value="Start" style="ellipse;whiteSpace=wrap;html=1;" vertex="1" parent="1">
          <mxGeometry width="200" height="80" as="geometry" />
        </mxCell>
        <mxCell id="DpnooXdDaTHGX6aRq5rG-42" style="edgeStyle=orthogonalEdgeStyle;rounded=0;orthogonalLoop=1;jettySize=auto;html=1;exitX=0.5;exitY=1;exitDx=0;exitDy=0;entryX=0.5;entryY=0;entryDx=0;entryDy=0;" edge="1" parent="1" source="DpnooXdDaTHGX6aRq5rG-4" target="DpnooXdDaTHGX6aRq5rG-6">
          <mxGeometry relative="1" as="geometry" />
        </mxCell>
        <mxCell id="DpnooXdDaTHGX6aRq5rG-4" value="input content" style="shape=parallelogram;perimeter=parallelogramPerimeter;whiteSpace=wrap;html=1;fixedSize=1;" vertex="1" parent="1">
          <mxGeometry y="120" width="200" height="60" as="geometry" />
        </mxCell>
        <mxCell id="DpnooXdDaTHGX6aRq5rG-20" style="edgeStyle=orthogonalEdgeStyle;rounded=0;orthogonalLoop=1;jettySize=auto;html=1;exitX=0.5;exitY=1;exitDx=0;exitDy=0;entryX=0.5;entryY=0;entryDx=0;entryDy=0;" edge="1" parent="1" source="DpnooXdDaTHGX6aRq5rG-6" target="DpnooXdDaTHGX6aRq5rG-7">
          <mxGeometry relative="1" as="geometry" />
        </mxCell>
        <mxCell id="DpnooXdDaTHGX6aRq5rG-6" value="write_to_file(&quot;practice.txt&quot;, content)" style="shape=process;whiteSpace=wrap;html=1;backgroundOutline=1;" vertex="1" parent="1">
          <mxGeometry y="220" width="200" height="60" as="geometry" />
        </mxCell>
        <mxCell id="DpnooXdDaTHGX6aRq5rG-9" style="edgeStyle=orthogonalEdgeStyle;rounded=0;orthogonalLoop=1;jettySize=auto;html=1;exitX=1;exitY=0.5;exitDx=0;exitDy=0;entryX=0;entryY=0.5;entryDx=0;entryDy=0;" edge="1" parent="1" source="DpnooXdDaTHGX6aRq5rG-7" target="DpnooXdDaTHGX6aRq5rG-8">
          <mxGeometry relative="1" as="geometry" />
        </mxCell>
        <mxCell id="DpnooXdDaTHGX6aRq5rG-10" value="yes" style="edgeLabel;html=1;align=center;verticalAlign=middle;resizable=0;points=[];" vertex="1" connectable="0" parent="DpnooXdDaTHGX6aRq5rG-9">
          <mxGeometry x="-0.1867" y="1" relative="1" as="geometry">
            <mxPoint as="offset" />
          </mxGeometry>
        </mxCell>
        <mxCell id="DpnooXdDaTHGX6aRq5rG-22" value="no" style="edgeStyle=orthogonalEdgeStyle;rounded=0;orthogonalLoop=1;jettySize=auto;html=1;exitX=0.5;exitY=1;exitDx=0;exitDy=0;entryX=0.5;entryY=0;entryDx=0;entryDy=0;" edge="1" parent="1" source="DpnooXdDaTHGX6aRq5rG-7" target="DpnooXdDaTHGX6aRq5rG-11">
          <mxGeometry relative="1" as="geometry" />
        </mxCell>
        <mxCell id="DpnooXdDaTHGX6aRq5rG-7" value="failed?" style="rhombus;whiteSpace=wrap;html=1;" vertex="1" parent="1">
          <mxGeometry y="320" width="200" height="80" as="geometry" />
        </mxCell>
        <mxCell id="DpnooXdDaTHGX6aRq5rG-8" value="print &quot;Error writing to practice.txt&quot;" style="shape=parallelogram;perimeter=parallelogramPerimeter;whiteSpace=wrap;html=1;fixedSize=1;" vertex="1" parent="1">
          <mxGeometry x="240" y="330" width="120" height="60" as="geometry" />
        </mxCell>
        <mxCell id="DpnooXdDaTHGX6aRq5rG-21" style="edgeStyle=orthogonalEdgeStyle;rounded=0;orthogonalLoop=1;jettySize=auto;html=1;exitX=0.5;exitY=1;exitDx=0;exitDy=0;entryX=0.5;entryY=0;entryDx=0;entryDy=0;" edge="1" parent="1" source="DpnooXdDaTHGX6aRq5rG-11" target="DpnooXdDaTHGX6aRq5rG-14">
          <mxGeometry relative="1" as="geometry" />
        </mxCell>
        <mxCell id="DpnooXdDaTHGX6aRq5rG-11" value="write_to_file(&quot;/root/practice.txt&quot;, content)" style="shape=process;whiteSpace=wrap;html=1;backgroundOutline=1;" vertex="1" parent="1">
          <mxGeometry y="440" width="200" height="60" as="geometry" />
        </mxCell>
        <mxCell id="DpnooXdDaTHGX6aRq5rG-12" style="edgeStyle=orthogonalEdgeStyle;rounded=0;orthogonalLoop=1;jettySize=auto;html=1;exitX=1;exitY=0.5;exitDx=0;exitDy=0;entryX=0;entryY=0.5;entryDx=0;entryDy=0;" edge="1" parent="1" source="DpnooXdDaTHGX6aRq5rG-14" target="DpnooXdDaTHGX6aRq5rG-15">
          <mxGeometry relative="1" as="geometry" />
        </mxCell>
        <mxCell id="DpnooXdDaTHGX6aRq5rG-13" value="yes" style="edgeLabel;html=1;align=center;verticalAlign=middle;resizable=0;points=[];" vertex="1" connectable="0" parent="DpnooXdDaTHGX6aRq5rG-12">
          <mxGeometry x="-0.1867" y="1" relative="1" as="geometry">
            <mxPoint as="offset" />
          </mxGeometry>
        </mxCell>
        <mxCell id="DpnooXdDaTHGX6aRq5rG-29" style="edgeStyle=orthogonalEdgeStyle;rounded=0;orthogonalLoop=1;jettySize=auto;html=1;exitX=0.5;exitY=1;exitDx=0;exitDy=0;entryX=0.5;entryY=0;entryDx=0;entryDy=0;" edge="1" parent="1" source="DpnooXdDaTHGX6aRq5rG-14" target="DpnooXdDaTHGX6aRq5rG-24">
          <mxGeometry relative="1" as="geometry" />
        </mxCell>
        <mxCell id="DpnooXdDaTHGX6aRq5rG-30" value="no" style="edgeLabel;html=1;align=center;verticalAlign=middle;resizable=0;points=[];" vertex="1" connectable="0" parent="DpnooXdDaTHGX6aRq5rG-29">
          <mxGeometry x="-0.3095" y="1" relative="1" as="geometry">
            <mxPoint as="offset" />
          </mxGeometry>
        </mxCell>
        <mxCell id="DpnooXdDaTHGX6aRq5rG-14" value="failed?" style="rhombus;whiteSpace=wrap;html=1;" vertex="1" parent="1">
          <mxGeometry y="540" width="200" height="80" as="geometry" />
        </mxCell>
        <mxCell id="DpnooXdDaTHGX6aRq5rG-15" value="print &quot;Error writing to /root/practice.txt&quot;" style="shape=parallelogram;perimeter=parallelogramPerimeter;whiteSpace=wrap;html=1;fixedSize=1;" vertex="1" parent="1">
          <mxGeometry x="240" y="550" width="120" height="60" as="geometry" />
        </mxCell>
        <mxCell id="DpnooXdDaTHGX6aRq5rG-23" style="edgeStyle=orthogonalEdgeStyle;rounded=0;orthogonalLoop=1;jettySize=auto;html=1;exitX=0.5;exitY=1;exitDx=0;exitDy=0;entryX=0.5;entryY=0;entryDx=0;entryDy=0;" edge="1" parent="1" source="DpnooXdDaTHGX6aRq5rG-24" target="DpnooXdDaTHGX6aRq5rG-27">
          <mxGeometry relative="1" as="geometry" />
        </mxCell>
        <mxCell id="DpnooXdDaTHGX6aRq5rG-24" value="copy_file(&quot;practice.txt&quot;, &quot;practice1.txt&quot;)" style="shape=process;whiteSpace=wrap;html=1;backgroundOutline=1;" vertex="1" parent="1">
          <mxGeometry y="660" width="200" height="60" as="geometry" />
        </mxCell>
        <mxCell id="DpnooXdDaTHGX6aRq5rG-25" style="edgeStyle=orthogonalEdgeStyle;rounded=0;orthogonalLoop=1;jettySize=auto;html=1;exitX=1;exitY=0.5;exitDx=0;exitDy=0;entryX=0;entryY=0.5;entryDx=0;entryDy=0;" edge="1" parent="1" source="DpnooXdDaTHGX6aRq5rG-27" target="DpnooXdDaTHGX6aRq5rG-28">
          <mxGeometry relative="1" as="geometry" />
        </mxCell>
        <mxCell id="DpnooXdDaTHGX6aRq5rG-26" value="yes" style="edgeLabel;html=1;align=center;verticalAlign=middle;resizable=0;points=[];" vertex="1" connectable="0" parent="DpnooXdDaTHGX6aRq5rG-25">
          <mxGeometry x="-0.1867" y="1" relative="1" as="geometry">
            <mxPoint as="offset" />
          </mxGeometry>
        </mxCell>
        <mxCell id="DpnooXdDaTHGX6aRq5rG-37" value="no" style="edgeStyle=orthogonalEdgeStyle;rounded=0;orthogonalLoop=1;jettySize=auto;html=1;exitX=0.5;exitY=1;exitDx=0;exitDy=0;entryX=0.5;entryY=0;entryDx=0;entryDy=0;" edge="1" parent="1" source="DpnooXdDaTHGX6aRq5rG-27" target="DpnooXdDaTHGX6aRq5rG-32">
          <mxGeometry relative="1" as="geometry" />
        </mxCell>
        <mxCell id="DpnooXdDaTHGX6aRq5rG-27" value="failed?" style="rhombus;whiteSpace=wrap;html=1;" vertex="1" parent="1">
          <mxGeometry y="760" width="200" height="80" as="geometry" />
        </mxCell>
        <mxCell id="DpnooXdDaTHGX6aRq5rG-28" value="print &quot;Error copying to practice1.txt&quot;" style="shape=parallelogram;perimeter=parallelogramPerimeter;whiteSpace=wrap;html=1;fixedSize=1;" vertex="1" parent="1">
          <mxGeometry x="240" y="770" width="120" height="60" as="geometry" />
        </mxCell>
        <mxCell id="DpnooXdDaTHGX6aRq5rG-31" style="edgeStyle=orthogonalEdgeStyle;rounded=0;orthogonalLoop=1;jettySize=auto;html=1;exitX=0.5;exitY=1;exitDx=0;exitDy=0;entryX=0.5;entryY=0;entryDx=0;entryDy=0;" edge="1" parent="1" source="DpnooXdDaTHGX6aRq5rG-32" target="DpnooXdDaTHGX6aRq5rG-35">
          <mxGeometry relative="1" as="geometry" />
        </mxCell>
        <mxCell id="DpnooXdDaTHGX6aRq5rG-32" value="copy_file(&quot;practice.txt&quot;, &quot;/root/practice1.txt&quot;)" style="shape=process;whiteSpace=wrap;html=1;backgroundOutline=1;" vertex="1" parent="1">
          <mxGeometry y="880" width="200" height="60" as="geometry" />
        </mxCell>
        <mxCell id="DpnooXdDaTHGX6aRq5rG-33" style="edgeStyle=orthogonalEdgeStyle;rounded=0;orthogonalLoop=1;jettySize=auto;html=1;exitX=1;exitY=0.5;exitDx=0;exitDy=0;entryX=0;entryY=0.5;entryDx=0;entryDy=0;" edge="1" parent="1" source="DpnooXdDaTHGX6aRq5rG-35" target="DpnooXdDaTHGX6aRq5rG-36">
          <mxGeometry relative="1" as="geometry" />
        </mxCell>
        <mxCell id="DpnooXdDaTHGX6aRq5rG-34" value="yes" style="edgeLabel;html=1;align=center;verticalAlign=middle;resizable=0;points=[];" vertex="1" connectable="0" parent="DpnooXdDaTHGX6aRq5rG-33">
          <mxGeometry x="-0.1867" y="1" relative="1" as="geometry">
            <mxPoint as="offset" />
          </mxGeometry>
        </mxCell>
        <mxCell id="DpnooXdDaTHGX6aRq5rG-39" style="edgeStyle=orthogonalEdgeStyle;rounded=0;orthogonalLoop=1;jettySize=auto;html=1;exitX=0.5;exitY=1;exitDx=0;exitDy=0;entryX=0.5;entryY=0;entryDx=0;entryDy=0;" edge="1" parent="1" source="DpnooXdDaTHGX6aRq5rG-35" target="DpnooXdDaTHGX6aRq5rG-38">
          <mxGeometry relative="1" as="geometry" />
        </mxCell>
        <mxCell id="DpnooXdDaTHGX6aRq5rG-40" value="no" style="edgeLabel;html=1;align=center;verticalAlign=middle;resizable=0;points=[];" vertex="1" connectable="0" parent="DpnooXdDaTHGX6aRq5rG-39">
          <mxGeometry x="-0.1259" relative="1" as="geometry">
            <mxPoint as="offset" />
          </mxGeometry>
        </mxCell>
        <mxCell id="DpnooXdDaTHGX6aRq5rG-35" value="failed?" style="rhombus;whiteSpace=wrap;html=1;" vertex="1" parent="1">
          <mxGeometry y="980" width="200" height="80" as="geometry" />
        </mxCell>
        <mxCell id="DpnooXdDaTHGX6aRq5rG-36" value="print &quot;Error copying to /root/practice1.txt&quot;" style="shape=parallelogram;perimeter=parallelogramPerimeter;whiteSpace=wrap;html=1;fixedSize=1;" vertex="1" parent="1">
          <mxGeometry x="240" y="990" width="120" height="60" as="geometry" />
        </mxCell>
        <mxCell id="DpnooXdDaTHGX6aRq5rG-38" value="End" style="ellipse;whiteSpace=wrap;html=1;" vertex="1" parent="1">
          <mxGeometry y="1100" width="200" height="80" as="geometry" />
        </mxCell>
        <mxCell id="DpnooXdDaTHGX6aRq5rG-58" style="edgeStyle=orthogonalEdgeStyle;rounded=0;orthogonalLoop=1;jettySize=auto;html=1;exitX=0.5;exitY=1;exitDx=0;exitDy=0;entryX=0.5;entryY=0;entryDx=0;entryDy=0;" edge="1" parent="1" source="DpnooXdDaTHGX6aRq5rG-43" target="DpnooXdDaTHGX6aRq5rG-45">
          <mxGeometry relative="1" as="geometry" />
        </mxCell>
        <mxCell id="DpnooXdDaTHGX6aRq5rG-43" value="write_to_file(path, content)" style="ellipse;whiteSpace=wrap;html=1;" vertex="1" parent="1">
          <mxGeometry x="400" width="120" height="80" as="geometry" />
        </mxCell>
        <mxCell id="DpnooXdDaTHGX6aRq5rG-47" style="edgeStyle=orthogonalEdgeStyle;rounded=0;orthogonalLoop=1;jettySize=auto;html=1;exitX=0.5;exitY=1;exitDx=0;exitDy=0;entryX=0.5;entryY=0;entryDx=0;entryDy=0;" edge="1" parent="1" source="DpnooXdDaTHGX6aRq5rG-45" target="DpnooXdDaTHGX6aRq5rG-46">
          <mxGeometry relative="1" as="geometry" />
        </mxCell>
        <mxCell id="DpnooXdDaTHGX6aRq5rG-45" value="create/open file at path in binary mode" style="shape=internalStorage;whiteSpace=wrap;html=1;backgroundOutline=1;" vertex="1" parent="1">
          <mxGeometry x="400" y="120" width="120" height="80" as="geometry" />
        </mxCell>
        <mxCell id="DpnooXdDaTHGX6aRq5rG-49" value="y" style="edgeStyle=orthogonalEdgeStyle;rounded=0;orthogonalLoop=1;jettySize=auto;html=1;exitX=1;exitY=0.5;exitDx=0;exitDy=0;entryX=0;entryY=0.5;entryDx=0;entryDy=0;" edge="1" parent="1" source="DpnooXdDaTHGX6aRq5rG-46" target="DpnooXdDaTHGX6aRq5rG-48">
          <mxGeometry relative="1" as="geometry" />
        </mxCell>
        <mxCell id="DpnooXdDaTHGX6aRq5rG-51" style="edgeStyle=orthogonalEdgeStyle;rounded=0;orthogonalLoop=1;jettySize=auto;html=1;exitX=0.5;exitY=1;exitDx=0;exitDy=0;entryX=0.5;entryY=0;entryDx=0;entryDy=0;" edge="1" parent="1" source="DpnooXdDaTHGX6aRq5rG-46" target="DpnooXdDaTHGX6aRq5rG-50">
          <mxGeometry relative="1" as="geometry" />
        </mxCell>
        <mxCell id="DpnooXdDaTHGX6aRq5rG-52" value="n" style="edgeLabel;html=1;align=center;verticalAlign=middle;resizable=0;points=[];" vertex="1" connectable="0" parent="DpnooXdDaTHGX6aRq5rG-51">
          <mxGeometry x="-0.3643" y="-1" relative="1" as="geometry">
            <mxPoint as="offset" />
          </mxGeometry>
        </mxCell>
        <mxCell id="DpnooXdDaTHGX6aRq5rG-46" value="failed?" style="rhombus;whiteSpace=wrap;html=1;" vertex="1" parent="1">
          <mxGeometry x="420" y="240" width="80" height="80" as="geometry" />
        </mxCell>
        <mxCell id="DpnooXdDaTHGX6aRq5rG-48" value="return Failure" style="ellipse;whiteSpace=wrap;html=1;" vertex="1" parent="1">
          <mxGeometry x="520" y="240" width="120" height="80" as="geometry" />
        </mxCell>
        <mxCell id="DpnooXdDaTHGX6aRq5rG-56" style="edgeStyle=orthogonalEdgeStyle;rounded=0;orthogonalLoop=1;jettySize=auto;html=1;exitX=0.5;exitY=1;exitDx=0;exitDy=0;entryX=0.5;entryY=0;entryDx=0;entryDy=0;" edge="1" parent="1" source="DpnooXdDaTHGX6aRq5rG-50" target="DpnooXdDaTHGX6aRq5rG-54">
          <mxGeometry relative="1" as="geometry" />
        </mxCell>
        <mxCell id="DpnooXdDaTHGX6aRq5rG-50" value="write content to file" style="rounded=0;whiteSpace=wrap;html=1;" vertex="1" parent="1">
          <mxGeometry x="400" y="360" width="120" height="60" as="geometry" />
        </mxCell>
        <mxCell id="DpnooXdDaTHGX6aRq5rG-57" style="edgeStyle=orthogonalEdgeStyle;rounded=0;orthogonalLoop=1;jettySize=auto;html=1;exitX=0.5;exitY=1;exitDx=0;exitDy=0;entryX=0.5;entryY=0;entryDx=0;entryDy=0;" edge="1" parent="1" source="DpnooXdDaTHGX6aRq5rG-54" target="DpnooXdDaTHGX6aRq5rG-55">
          <mxGeometry relative="1" as="geometry" />
        </mxCell>
        <mxCell id="DpnooXdDaTHGX6aRq5rG-54" value="close file" style="rounded=0;whiteSpace=wrap;html=1;" vertex="1" parent="1">
          <mxGeometry x="400" y="460" width="120" height="60" as="geometry" />
        </mxCell>
        <mxCell id="DpnooXdDaTHGX6aRq5rG-55" value="return Success" style="ellipse;whiteSpace=wrap;html=1;" vertex="1" parent="1">
          <mxGeometry x="400" y="560" width="120" height="80" as="geometry" />
        </mxCell>
        <mxCell id="DpnooXdDaTHGX6aRq5rG-59" style="edgeStyle=orthogonalEdgeStyle;rounded=0;orthogonalLoop=1;jettySize=auto;html=1;exitX=0.5;exitY=1;exitDx=0;exitDy=0;entryX=0.5;entryY=0;entryDx=0;entryDy=0;" edge="1" parent="1" source="DpnooXdDaTHGX6aRq5rG-60" target="DpnooXdDaTHGX6aRq5rG-62">
          <mxGeometry relative="1" as="geometry" />
        </mxCell>
        <mxCell id="DpnooXdDaTHGX6aRq5rG-60" value="copy_file(src_path, dest_path)" style="ellipse;whiteSpace=wrap;html=1;" vertex="1" parent="1">
          <mxGeometry x="700" width="120" height="80" as="geometry" />
        </mxCell>
        <mxCell id="DpnooXdDaTHGX6aRq5rG-61" style="edgeStyle=orthogonalEdgeStyle;rounded=0;orthogonalLoop=1;jettySize=auto;html=1;exitX=0.5;exitY=1;exitDx=0;exitDy=0;entryX=0.5;entryY=0;entryDx=0;entryDy=0;" edge="1" parent="1" source="DpnooXdDaTHGX6aRq5rG-62" target="DpnooXdDaTHGX6aRq5rG-66">
          <mxGeometry relative="1" as="geometry" />
        </mxCell>
        <mxCell id="DpnooXdDaTHGX6aRq5rG-62" value="open file at path in binary mode at end" style="shape=internalStorage;whiteSpace=wrap;html=1;backgroundOutline=1;" vertex="1" parent="1">
          <mxGeometry x="700" y="120" width="120" height="80" as="geometry" />
        </mxCell>
        <mxCell id="DpnooXdDaTHGX6aRq5rG-63" value="y" style="edgeStyle=orthogonalEdgeStyle;rounded=0;orthogonalLoop=1;jettySize=auto;html=1;exitX=1;exitY=0.5;exitDx=0;exitDy=0;entryX=0;entryY=0.5;entryDx=0;entryDy=0;" edge="1" parent="1" source="DpnooXdDaTHGX6aRq5rG-66" target="DpnooXdDaTHGX6aRq5rG-67">
          <mxGeometry relative="1" as="geometry" />
        </mxCell>
        <mxCell id="DpnooXdDaTHGX6aRq5rG-64" style="edgeStyle=orthogonalEdgeStyle;rounded=0;orthogonalLoop=1;jettySize=auto;html=1;exitX=0.5;exitY=1;exitDx=0;exitDy=0;entryX=0.5;entryY=0;entryDx=0;entryDy=0;" edge="1" parent="1" source="DpnooXdDaTHGX6aRq5rG-66" target="DpnooXdDaTHGX6aRq5rG-73">
          <mxGeometry relative="1" as="geometry">
            <mxPoint x="760" y="360" as="targetPoint" />
          </mxGeometry>
        </mxCell>
        <mxCell id="DpnooXdDaTHGX6aRq5rG-65" value="n" style="edgeLabel;html=1;align=center;verticalAlign=middle;resizable=0;points=[];" vertex="1" connectable="0" parent="DpnooXdDaTHGX6aRq5rG-64">
          <mxGeometry x="-0.3643" y="-1" relative="1" as="geometry">
            <mxPoint as="offset" />
          </mxGeometry>
        </mxCell>
        <mxCell id="DpnooXdDaTHGX6aRq5rG-66" value="failed?" style="rhombus;whiteSpace=wrap;html=1;" vertex="1" parent="1">
          <mxGeometry x="720" y="240" width="80" height="80" as="geometry" />
        </mxCell>
        <mxCell id="DpnooXdDaTHGX6aRq5rG-67" value="return Failure" style="ellipse;whiteSpace=wrap;html=1;" vertex="1" parent="1">
          <mxGeometry x="820" y="240" width="120" height="80" as="geometry" />
        </mxCell>
        <mxCell id="DpnooXdDaTHGX6aRq5rG-93" style="edgeStyle=orthogonalEdgeStyle;rounded=0;orthogonalLoop=1;jettySize=auto;html=1;exitX=0.5;exitY=1;exitDx=0;exitDy=0;entryX=0.5;entryY=0;entryDx=0;entryDy=0;" edge="1" parent="1" source="DpnooXdDaTHGX6aRq5rG-73" target="DpnooXdDaTHGX6aRq5rG-74">
          <mxGeometry relative="1" as="geometry" />
        </mxCell>
        <mxCell id="DpnooXdDaTHGX6aRq5rG-73" value="get size of file" style="rounded=0;whiteSpace=wrap;html=1;" vertex="1" parent="1">
          <mxGeometry x="700" y="360" width="120" height="60" as="geometry" />
        </mxCell>
        <mxCell id="DpnooXdDaTHGX6aRq5rG-92" style="edgeStyle=orthogonalEdgeStyle;rounded=0;orthogonalLoop=1;jettySize=auto;html=1;exitX=0.5;exitY=1;exitDx=0;exitDy=0;entryX=0.5;entryY=0;entryDx=0;entryDy=0;" edge="1" parent="1" source="DpnooXdDaTHGX6aRq5rG-74" target="DpnooXdDaTHGX6aRq5rG-75">
          <mxGeometry relative="1" as="geometry" />
        </mxCell>
        <mxCell id="DpnooXdDaTHGX6aRq5rG-74" value="char array same size as file" style="rounded=0;whiteSpace=wrap;html=1;" vertex="1" parent="1">
          <mxGeometry x="700" y="460" width="120" height="60" as="geometry" />
        </mxCell>
        <mxCell id="DpnooXdDaTHGX6aRq5rG-91" style="edgeStyle=orthogonalEdgeStyle;rounded=0;orthogonalLoop=1;jettySize=auto;html=1;exitX=0.5;exitY=1;exitDx=0;exitDy=0;entryX=0.5;entryY=0;entryDx=0;entryDy=0;" edge="1" parent="1" source="DpnooXdDaTHGX6aRq5rG-75" target="DpnooXdDaTHGX6aRq5rG-76">
          <mxGeometry relative="1" as="geometry" />
        </mxCell>
        <mxCell id="DpnooXdDaTHGX6aRq5rG-75" value="read to char array" style="rounded=0;whiteSpace=wrap;html=1;" vertex="1" parent="1">
          <mxGeometry x="700" y="560" width="120" height="60" as="geometry" />
        </mxCell>
        <mxCell id="DpnooXdDaTHGX6aRq5rG-90" style="edgeStyle=orthogonalEdgeStyle;rounded=0;orthogonalLoop=1;jettySize=auto;html=1;exitX=0.5;exitY=1;exitDx=0;exitDy=0;entryX=0.5;entryY=0;entryDx=0;entryDy=0;" edge="1" parent="1" source="DpnooXdDaTHGX6aRq5rG-76" target="DpnooXdDaTHGX6aRq5rG-79">
          <mxGeometry relative="1" as="geometry" />
        </mxCell>
        <mxCell id="DpnooXdDaTHGX6aRq5rG-76" value="close file" style="rounded=0;whiteSpace=wrap;html=1;" vertex="1" parent="1">
          <mxGeometry x="700" y="660" width="120" height="60" as="geometry" />
        </mxCell>
        <mxCell id="DpnooXdDaTHGX6aRq5rG-78" style="edgeStyle=orthogonalEdgeStyle;rounded=0;orthogonalLoop=1;jettySize=auto;html=1;exitX=0.5;exitY=1;exitDx=0;exitDy=0;entryX=0.5;entryY=0;entryDx=0;entryDy=0;" edge="1" parent="1" source="DpnooXdDaTHGX6aRq5rG-79" target="DpnooXdDaTHGX6aRq5rG-83">
          <mxGeometry relative="1" as="geometry" />
        </mxCell>
        <mxCell id="DpnooXdDaTHGX6aRq5rG-79" value="create/open file at path in binary mode" style="shape=internalStorage;whiteSpace=wrap;html=1;backgroundOutline=1;" vertex="1" parent="1">
          <mxGeometry x="700" y="760" width="120" height="80" as="geometry" />
        </mxCell>
        <mxCell id="DpnooXdDaTHGX6aRq5rG-80" value="y" style="edgeStyle=orthogonalEdgeStyle;rounded=0;orthogonalLoop=1;jettySize=auto;html=1;exitX=1;exitY=0.5;exitDx=0;exitDy=0;entryX=0;entryY=0.5;entryDx=0;entryDy=0;" edge="1" parent="1" source="DpnooXdDaTHGX6aRq5rG-83" target="DpnooXdDaTHGX6aRq5rG-84">
          <mxGeometry relative="1" as="geometry" />
        </mxCell>
        <mxCell id="DpnooXdDaTHGX6aRq5rG-81" style="edgeStyle=orthogonalEdgeStyle;rounded=0;orthogonalLoop=1;jettySize=auto;html=1;exitX=0.5;exitY=1;exitDx=0;exitDy=0;entryX=0.5;entryY=0;entryDx=0;entryDy=0;" edge="1" parent="1" source="DpnooXdDaTHGX6aRq5rG-83" target="DpnooXdDaTHGX6aRq5rG-86">
          <mxGeometry relative="1" as="geometry" />
        </mxCell>
        <mxCell id="DpnooXdDaTHGX6aRq5rG-82" value="n" style="edgeLabel;html=1;align=center;verticalAlign=middle;resizable=0;points=[];" vertex="1" connectable="0" parent="DpnooXdDaTHGX6aRq5rG-81">
          <mxGeometry x="-0.3643" y="-1" relative="1" as="geometry">
            <mxPoint as="offset" />
          </mxGeometry>
        </mxCell>
        <mxCell id="DpnooXdDaTHGX6aRq5rG-83" value="failed?" style="rhombus;whiteSpace=wrap;html=1;" vertex="1" parent="1">
          <mxGeometry x="720" y="880" width="80" height="80" as="geometry" />
        </mxCell>
        <mxCell id="DpnooXdDaTHGX6aRq5rG-84" value="return Failure" style="ellipse;whiteSpace=wrap;html=1;" vertex="1" parent="1">
          <mxGeometry x="820" y="880" width="120" height="80" as="geometry" />
        </mxCell>
        <mxCell id="DpnooXdDaTHGX6aRq5rG-85" style="edgeStyle=orthogonalEdgeStyle;rounded=0;orthogonalLoop=1;jettySize=auto;html=1;exitX=0.5;exitY=1;exitDx=0;exitDy=0;entryX=0.5;entryY=0;entryDx=0;entryDy=0;" edge="1" parent="1" source="DpnooXdDaTHGX6aRq5rG-86" target="DpnooXdDaTHGX6aRq5rG-88">
          <mxGeometry relative="1" as="geometry" />
        </mxCell>
        <mxCell id="DpnooXdDaTHGX6aRq5rG-86" value="write content to file" style="rounded=0;whiteSpace=wrap;html=1;" vertex="1" parent="1">
          <mxGeometry x="700" y="1000" width="120" height="60" as="geometry" />
        </mxCell>
        <mxCell id="DpnooXdDaTHGX6aRq5rG-87" style="edgeStyle=orthogonalEdgeStyle;rounded=0;orthogonalLoop=1;jettySize=auto;html=1;exitX=0.5;exitY=1;exitDx=0;exitDy=0;entryX=0.5;entryY=0;entryDx=0;entryDy=0;" edge="1" parent="1" source="DpnooXdDaTHGX6aRq5rG-88" target="DpnooXdDaTHGX6aRq5rG-89">
          <mxGeometry relative="1" as="geometry" />
        </mxCell>
        <mxCell id="DpnooXdDaTHGX6aRq5rG-88" value="close file" style="rounded=0;whiteSpace=wrap;html=1;" vertex="1" parent="1">
          <mxGeometry x="700" y="1100" width="120" height="60" as="geometry" />
        </mxCell>
        <mxCell id="DpnooXdDaTHGX6aRq5rG-89" value="return Success" style="ellipse;whiteSpace=wrap;html=1;" vertex="1" parent="1">
          <mxGeometry x="700" y="1200" width="120" height="80" as="geometry" />
        </mxCell>
      </root>
    </mxGraphModel>
  </diagram>
</mxfile>
